<?xml version="1.0" encoding="UTF-8" standalone="no"?>
<svg width="64" height="64" viewBox="0 0 64 64" xmlns="http://www.w3.org/2000/svg">
  <defs>
    <linearGradient id="grad_red" x1="0%" y1="0%" x2="100%" y2="100%">
      <stop offset="0%" style="stop-color:#FF5252;stop-opacity:1" />
      <stop offset="100%" style="stop-color:#D50000;stop-opacity:1" />
    </linearGradient>
    <filter id="shadow" x="-20%" y="-20%" width="140%" height="140%">
      <feDropShadow dx="0" dy="2" stdDeviation="3" flood-opacity="0.3"/>
    </filter>
  </defs>
  
  <!-- Sleek rounded squircle background representing openSUSE chameleon curve roughly -->
  <path d="M32 4 C12 4 4 12 4 32 C4 52 12 60 32 60 C52 60 60 52 60 32 C60 12 52 4 32 4 Z" 
        fill="url(#grad_red)" 
        filter="url(#shadow)"/>
        
  <!-- Optional inner symbol -->
  <text x="32" y="42" 
        font-family="sans-serif" 
        font-size="28" 
        font-weight="bold" 
        fill="#ffffff" 
        text-anchor="middle">!</text>
        
  <!-- Glassmorphism subtle inner highlight -->
  <path d="M32 4 C12 4 4 12 4 32 C4 18 18 8 32 8 C46 8 60 18 60 32 C60 12 52 4 32 4 Z" 
        fill="#ffffff" 
        opacity="0.2"/>
</svg>
